HIERARCHY
ROOT hip
{
  OFFSET 0 0 0
  CHANNELS 6 Xposition Yposition Zposition Zrotation Yrotation Xrotation
  JOINT abdomen
  {
    OFFSET 0 20.6881 -0.73152
    CHANNELS 3 Zrotation Xrotation Yrotation
    JOINT chest
    {
      OFFSET 0 11.7043 -0.48768
      CHANNELS 3 Zrotation Xrotation Yrotation
      JOINT neck
      {
        OFFSET 0 22.1894 -2.19456
        CHANNELS 3 Zrotation Xrotation Yrotation
        JOINT head
        {
          OFFSET -0.24384 7.07133 1.2192
          CHANNELS 3 Zrotation Xrotation Yrotation
          JOINT leftEye
          {
            OFFSET 4.14528 8.04674 8.04672
            CHANNELS 3 Zrotation Xrotation Yrotation
            End Site
            {
              OFFSET 1 0 0
            }
          }
          JOINT rightEye
          {
            OFFSET -3.6576 8.04674 8.04672
            CHANNELS 3 Zrotation Xrotation Yrotation
            End Site
            {
              OFFSET 1 0 0
            }
          }
        }
      }
      JOINT rCollar
      {
        OFFSET -2.68224 19.2634 -4.8768
        CHANNELS 3 Zrotation Xrotation Yrotation
        JOINT rShldr
        {
          OFFSET -8.77824 -1.95073 1.46304
          CHANNELS 3 Zrotation Xrotation Yrotation
          JOINT rForeArm
          {
            OFFSET -28.1742 -1.7115 0.48768
            CHANNELS 3 Zrotation Xrotation Yrotation
            JOINT rHand
            {
              OFFSET -22.5879 0.773209 7.07136
              CHANNELS 3 Zrotation Xrotation Yrotation
              JOINT rThumb1
              {
                OFFSET -1.2192 -0.487915 3.41376
                CHANNELS 3 Zrotation Xrotation Yrotation
                JOINT rThumb2
                {
                  OFFSET -3.37035 -0.52449 3.41376
                  CHANNELS 3 Zrotation Xrotation Yrotation
                  End Site
                  {
                    OFFSET -1.78271 -1.18214 1.43049
                  }
                }
              }
              JOINT rIndex1
              {
                OFFSET -7.75947 0.938293 5.60832
                CHANNELS 3 Zrotation Xrotation Yrotation
                JOINT rIndex2
                {
                  OFFSET -2.54057 -0.884171 1.56538
                  CHANNELS 3 Zrotation Xrotation Yrotation
                  End Site
                  {
                    OFFSET -1.62519 -0.234802 1.16502
                  }
                }
              }
              JOINT rMid1
              {
                OFFSET -8.24714 1.18213 3.41376
                CHANNELS 3 Zrotation Xrotation Yrotation
                JOINT rMid2
                {
                  OFFSET -3.10165 -0.590103 1.0647
                  CHANNELS 3 Zrotation Xrotation Yrotation
                  End Site
                  {
                    OFFSET -2.48547 -0.328903 0.83742
                  }
                }
              }
              JOINT rRing1
              {
                OFFSET -8.82822 0.546677 1.51678
                CHANNELS 3 Zrotation Xrotation Yrotation
                JOINT rRing2
                {
                  OFFSET -2.60934 -0.819778 -0.0198488
                  CHANNELS 3 Zrotation Xrotation Yrotation
                  End Site
                  {
                    OFFSET -2.33842 -0.294052 0.168128
                  }
                }
              }
              JOINT rPinky1
              {
                OFFSET -8.27202 -0.0477905 -0.4584
                CHANNELS 3 Zrotation Xrotation Yrotation
                JOINT rPinky2
                {
                  OFFSET -1.82734 -0.647385 -0.700984
                  CHANNELS 3 Zrotation Xrotation Yrotation
                  End Site
                  {
                    OFFSET -1.69225 -0.51767 -0.607171
                  }
                }
              }
            }
          }
        }
      }
      JOINT lCollar
      {
        OFFSET 2.68224 19.2634 -4.8768
        CHANNELS 3 Zrotation Xrotation Yrotation
        JOINT lShldr
        {
          OFFSET 8.77824 -1.95073 1.46304
          CHANNELS 3 Zrotation Xrotation Yrotation
          JOINT lForeArm
          {
            OFFSET 28.1742 -1.7115 0.48768
            CHANNELS 3 Zrotation Xrotation Yrotation
            JOINT lHand
            {
              OFFSET 22.5879 0.773209 7.07136
              CHANNELS 3 Zrotation Xrotation Yrotation
              JOINT lThumb1
              {
                OFFSET 1.2192 -0.487915 3.41376
                CHANNELS 3 Zrotation Xrotation Yrotation
                JOINT lThumb2
                {
                  OFFSET 3.37035 -0.52449 3.41376
                  CHANNELS 3 Zrotation Xrotation Yrotation
                  End Site
                  {
                    OFFSET 1.78271 -1.18214 1.43049
                  }
                }
              }
              JOINT lIndex1
              {
                OFFSET 7.75947 0.938293 5.60832
                CHANNELS 3 Zrotation Xrotation Yrotation
                JOINT lIndex2
                {
                  OFFSET 2.54057 -0.884171 1.56538
                  CHANNELS 3 Zrotation Xrotation Yrotation
                  End Site
                  {
                    OFFSET 1.62519 -0.234802 1.16502
                  }
                }
              }
              JOINT lMid1
              {
                OFFSET 8.24714 1.18213 3.41376
                CHANNELS 3 Zrotation Xrotation Yrotation
                JOINT lMid2
                {
                  OFFSET 3.10165 -0.590103 1.0647
                  CHANNELS 3 Zrotation Xrotation Yrotation
                  End Site
                  {
                    OFFSET 2.48547 -0.328903 0.83742
                  }
                }
              }
              JOINT lRing1
              {
                OFFSET 8.82822 0.546677 1.51678
                CHANNELS 3 Zrotation Xrotation Yrotation
                JOINT lRing2
                {
                  OFFSET 2.60934 -0.819778 -0.0198488
                  CHANNELS 3 Zrotation Xrotation Yrotation
                  End Site
                  {
                    OFFSET 2.33842 -0.294052 0.168128
                  }
                }
              }
              JOINT lPinky1
              {
                OFFSET 8.27202 -0.0477905 -0.4584
                CHANNELS 3 Zrotation Xrotation Yrotation
                JOINT lPinky2
                {
                  OFFSET 1.82734 -0.647385 -0.700984
                  CHANNELS 3 Zrotation Xrotation Yrotation
                  End Site
                  {
                    OFFSET 1.69225 -0.51767 -0.607171
                  }
                }
              }
            }
          }
        }
      }
    }
  }
  JOINT rButtock
  {
    OFFSET -8.77824 4.35084 1.2192
    CHANNELS 3 Zrotation Xrotation Yrotation
    JOINT rThigh
    {
      OFFSET 0 -1.70687 -2.19456
      CHANNELS 3 Zrotation Xrotation Yrotation
      JOINT rShin
      {
        OFFSET 0 -36.8199 0.73152
        CHANNELS 3 Zrotation Xrotation Yrotation
        JOINT rFoot
        {
          OFFSET 0.73152 -45.1104 -5.12064
          CHANNELS 3 Zrotation Xrotation Yrotation
          End Site
          {
            OFFSET -1.1221 -3.69964 12.103
          }
        }
      }
    }
  }
  JOINT lButtock
  {
    OFFSET 8.77824 4.35084 1.2192
    CHANNELS 3 Zrotation Xrotation Yrotation
    JOINT lThigh
    {
      OFFSET 0 -1.70687 -2.19456
      CHANNELS 3 Zrotation Xrotation Yrotation
      JOINT lShin
      {
        OFFSET 0 -36.8199 0.73152
        CHANNELS 3 Zrotation Xrotation Yrotation
        JOINT lFoot
        {
          OFFSET -0.73152 -45.1104 -5.12064
          CHANNELS 3 Zrotation Xrotation Yrotation
          End Site
          {
            OFFSET 1.1221 -3.69964 12.103
          }
        }
      }
    }
  }
}
MOTION
Frames:	4
Frame Time:	0.03333
-43.7282606260851 88.4247899055481 63.847930915653706 104.46984100341797 -49.92667007446289 -34.352256774902344 -25.790054321289062 29.694902420043945 17.79160499572754 -4.40949010848999 -10.736307144165039 0.23186597228050232 -0.46203216910362244 9.441483497619629 6.79244327545166 -15.03707218170166 -14.226592063903809 11.31358528137207 -0.8978312015533447 -0.7156459093093872 0.17797479033470154 1.9215238094329834 1.0169899463653564 0.8381370306015015 -0.6064630150794983 1.4145582914352417 0.36628106236457825 18.340919494628906 28.83374786376953 19.362186431884766 -26.09075164794922 -27.653581619262695 66.59663391113281 -0.047090839594602585 6.1388044357299805 0.7149720788002014 0.33649370074272156 0.5284966826438904 -0.7944844365119934 -0.40300148725509644 -1.209079623222351 0.17522725462913513 0.44931867718696594 0.18444958329200745 0.5379184484481812 7.165353775024414 3.807236909866333 0.6458458304405212 -0.3729953169822693 -1.5928503274917603 -0.43382683396339417 1.5678799152374268 0.7863770127296448 -0.12496613711118698 0.4993818998336792 0.8176814913749695 -0.7568318247795105 7.8215813636779785 0.20286647975444794 0.28034672141075134 -0.6501366496086121 0.9784327745437622 0.5112961530685425 1.8723828792572021 0.03380059823393822 -2.4190526008605957 -0.20248037576675415 -0.8890709280967712 0.8041685223579407 -54.53266525268555 -20.725379943847656 7.312468528747559 17.51422119140625 -12.516459465026855 -40.12379455566406 0.6871191263198853 -24.337398529052734 2.3244707584381104 -1.5329335927963257 -0.20744898915290833 0.2487032115459442 -1.486031174659729 0.3733668029308319 0.912820041179657 -0.062378887087106705 -0.5922982692718506 0.6877824068069458 -5.994894504547119 4.227096080780029 0.8248934745788574 -0.38397741317749023 -0.6876443028450012 0.15233485400676727 -0.9795332551002502 0.008226731792092323 0.404241681098938 0.3690120279788971 -3.159152030944824 0.5138828158378601 -9.88232707977295 0.18788984417915344 1.5761942863464355 1.6991026401519775 -0.18357494473457336 0.7302270531654358 -2.3946328163146973 -2.073460817337036 -0.26029396057128906 2.320145606994629 -2.486206531524658 -0.8805081844329834 -45.41741943359375 -14.959465980529785 -1.000840663909912 -1.066334843635559 14.517370223999023 2.2412540912628174 4.075372695922852 0.7588104009628296 -21.92856788635254 -0.3298661410808563 -1.1455157995224 1.0767595767974854 112.66059112548828 -34.80732345581055 68.69979095458984 -2.285460948944092 63.155967712402344 2.290689706802368 -3.120056390762329 3.0556349754333496 15.927948951721191
-45.810302277095616 89.37751650810242 63.811467960476875 107.1917953491211 -49.096900939941406 -36.42033004760742 -25.5672550201416 30.030792236328125 18.03206443786621 -4.468052387237549 -10.972646713256836 0.42282533645629883 -0.5204105973243713 9.696477890014648 7.337545394897461 -15.447338104248047 -14.792247772216797 11.949234008789062 -0.9493964314460754 -0.3373754322528839 0.16169296205043793 1.8578416109085083 0.9360311627388 1.0918539762496948 -0.7676834464073181 1.7630105018615723 0.6261358261108398 17.68918800354004 29.17101287841797 20.805042266845703 -26.34287452697754 -28.189125061035156 67.48731994628906 0.1311008185148239 5.398861885070801 0.7010942101478577 0.15666088461875916 0.7742589712142944 -0.8679705262184143 -0.3699103891849518 -1.3687783479690552 0.23482124507427216 0.5010047554969788 0.22969220578670502 0.6124337315559387 7.539755821228027 3.676542043685913 0.5573176145553589 -0.34617364406585693 -1.2609871625900269 -0.33349090814590454 1.404956340789795 0.7811903357505798 0.20768706500530243 0.4648837745189667 1.177734613418579 -0.6916353106498718 7.64289665222168 0.3936598300933838 0.2746962010860443 -0.7009303569793701 0.9762829542160034 0.7315534949302673 2.1880459785461426 -0.31620368361473083 -2.5735421180725098 -0.2162083089351654 -0.8464301824569702 0.5465580821037292 -55.772098541259766 -21.99414825439453 7.757719039916992 17.533233642578125 -12.731475830078125 -40.37687683105469 0.5863131284713745 -24.83029556274414 2.160663366317749 -1.5616251230239868 -0.10473868995904922 0.21121512353420258 -1.3674111366271973 0.43372485041618347 0.6840164661407471 0.18128058314323425 -0.6549387574195862 0.8524494171142578 -6.243926048278809 4.155650615692139 0.6508843898773193 -0.2689226567745209 -0.7961259484291077 0.10960753262042999 -0.7346985936164856 -0.16281424462795258 -0.3472422659397125 0.29289913177490234 -3.2794907093048096 0.6020852327346802 -10.427486419677734 -0.22819754481315613 1.7771573066711426 1.791996717453003 -0.14688833057880402 1.1332945823669434 -2.5481958389282227 -1.6393784284591675 -0.2935010492801666 2.38608455657959 -2.607879400253296 -0.830755352973938 -46.584251403808594 -14.922327041625977 -1.5119363069534302 -0.9106189012527466 13.927492141723633 2.5515964031219482 3.472839593887329 0.33111146092414856 -23.948843002319336 -0.06165093183517456 -1.415862798690796 1.0869096517562866 116.40607452392578 -32.84581756591797 72.53199768066406 -2.593475103378296 65.93344116210938 2.5338943004608154 -3.704099416732788 3.179286003112793 14.890630722045898
-48.010254953987896 89.93232250213623 63.25062420219183 106.45862579345703 -49.05560302734375 -41.5653076171875 -26.093908309936523 30.45411491394043 18.2810115814209 -4.493303298950195 -10.870116233825684 0.9000416994094849 -0.8915067911148071 9.666208267211914 7.132255554199219 -15.355121612548828 -14.94533920288086 11.302312850952148 -0.9072550535202026 0.1288740634918213 -0.14410054683685303 1.6329294443130493 0.8973821997642517 1.2844103574752808 -0.9065454602241516 1.930694580078125 0.8003568053245544 16.23037338256836 26.97098159790039 23.13612174987793 -26.351577758789062 -27.589271545410156 66.34200286865234 0.1991269439458847 7.325189590454102 0.8931593894958496 0.2656075060367584 1.0751286745071411 -0.8199764490127563 -0.2534061670303345 -1.6411230564117432 0.2249247282743454 0.4473637342453003 0.3626168966293335 0.5421208143234253 7.748720169067383 3.6355373859405518 0.4902411103248596 -0.08411586284637451 -0.6762799620628357 -0.29607412219047546 1.2694541215896606 0.9390779733657837 0.5141295194625854 0.4662231504917145 1.3143376111984253 -0.6721880435943604 7.204196929931641 0.5424911975860596 0.46838879585266113 -0.7569032907485962 1.254598617553711 1.1211849451065063 2.5417850017547607 -0.7129165530204773 -2.670980215072632 -0.23938827216625214 -0.6035103797912598 0.3160899579524994 -57.07468795776367 -21.081947326660156 10.061179161071777 18.07491111755371 -13.453927993774414 -41.6308708190918 0.7154330611228943 -27.77952766418457 2.640195608139038 -1.4127062559127808 0.07571882009506226 0.19999411702156067 -1.2649263143539429 0.564336359500885 0.8081812262535095 0.3563869297504425 -0.7634338736534119 0.9830247759819031 -6.504146575927734 3.924633741378784 0.518683910369873 -0.010979746468365192 -0.7923145294189453 0.24529004096984863 -0.7120031118392944 -0.1483888030052185 -1.0032175779342651 0.270084023475647 -3.329578161239624 0.6568430066108704 -10.864960670471191 -0.5097503662109375 1.8417646884918213 1.8673937320709229 -0.06178390607237816 1.1864224672317505 -2.6819400787353516 -1.2546788454055786 -0.15864886343479156 2.369682550430298 -2.7845470905303955 -0.9132592082023621 -47.36692428588867 -16.056411743164062 -2.8567311763763428 -0.6485848426818848 14.358149528503418 2.6517446041107178 3.2243058681488037 1.1989994049072266 -24.508283615112305 0.07913178205490112 -1.5007655620574951 1.3703327178955078 115.87828063964844 -32.721378326416016 72.8404769897461 -1.871643304824829 66.56755065917969 1.6969200372695923 -3.747483491897583 2.6706292629241943 14.84967041015625
-50.34249343443662 90.90387225151062 62.05613985657692 102.3694839477539 -49.34856414794922 -49.01633071899414 -26.57557487487793 30.849172592163086 18.78289222717285 -4.564342021942139 -10.733920097351074 1.604776382446289 -1.2002060413360596 9.529014587402344 6.789907932281494 -15.128284454345703 -15.245001792907715 10.572587966918945 -0.8691072463989258 0.6318589448928833 -0.572781503200531 1.220619559288025 0.8998215794563293 1.4683537483215332 -0.8687832355499268 1.8717396259307861 0.9530069828033447 14.559762954711914 24.757122039794922 26.11271858215332 -26.38882064819336 -26.9661865234375 65.00357055664062 0.2231142222881317 9.748723983764648 1.2421772480010986 0.5598400235176086 1.470401644706726 -0.6238217353820801 -0.01914750039577484 -1.9583176374435425 0.21664927899837494 0.36902493238449097 0.4266928434371948 0.41672369837760925 8.012904167175293 3.7117581367492676 0.45576366782188416 0.3742390275001526 0.004309879150241613 -0.35890284180641174 1.2940834760665894 1.162819743156433 0.8466857075691223 0.4004899263381958 1.1847299337387085 -0.5245606899261475 6.778987407684326 0.717926561832428 0.6583205461502075 -0.9017154574394226 1.621639370918274 1.4938894510269165 2.9221506118774414 -1.069103479385376 -2.654092788696289 -0.3064541816711426 -0.24376404285430908 0.1532534509897232 -58.67326736450195 -19.038236618041992 12.27905559539795 19.25464630126953 -14.887478828430176 -44.04391860961914 1.0169885158538818 -31.151264190673828 3.17981219291687 -1.2541218996047974 0.3293098211288452 0.153758242726326 -1.1321778297424316 0.6584780812263489 1.0212335586547852 0.46086063981056213 -0.9221401810646057 1.1860682964324951 -6.8634843826293945 3.6456568241119385 0.49577122926712036 0.2664737403392792 -0.7793787121772766 0.594072163105011 -0.8607509136199951 -0.04709746688604355 -1.581804871559143 0.3142220973968506 -3.3828284740448 0.6364254355430603 -11.3790283203125 -0.7372867465019226 1.7697895765304565 1.9361467361450195 -0.035369373857975006 1.1874126195907593 -2.8670260906219482 -0.8461718559265137 0.05091405659914017 2.3997154235839844 -2.8477494716644287 -0.8355537056922913 -47.61737823486328 -17.387693405151367 -4.545692443847656 -0.4344159662723541 15.504562377929688 2.6307289600372314 2.710026979446411 2.164363384246826 -24.635488510131836 0.009776822291314602 -1.3943904638290405 1.8168058395385742 114.30292510986328 -33.3535270690918 72.89260864257812 -1.1672708988189697 67.25636291503906 0.848026692867279 -3.561995029449463 1.9770762920379639 14.756107330322266
